<svg width="96" height="96" xmlns="http://www.w3.org/2000/svg" xmlns:xlink="http://www.w3.org/1999/xlink" xml:space="preserve" overflow="hidden"><g transform="translate(-592 -312)"><g><path d="M672.002 326 674.002 326 674.002 394 606.032 394 606.032 392 672.002 392 672.002 326Z" fill="#1C38BB" fill-rule="nonzero" fill-opacity="1"/><path d="M666 386.016 666 347.006 654 347.006 654 386.016ZM664 384.016 656 384.016 656 349.006 664 349.006Z" fill="#1C38BB" fill-rule="nonzero" fill-opacity="1"/><path d="M650 386.016 650 326 638 326 638 386.016ZM648 384.016 640 384.016 640 328 648 328Z" fill="#1C38BB" fill-rule="nonzero" fill-opacity="1"/><path d="M634 386.016 634 347.006 622 347.006 622 386.016ZM632 384.016 624 384.016 624 349.006 632 349.006Z" fill="#1C38BB" fill-rule="nonzero" fill-opacity="1"/><path d="M618 364.011 606 364.011 606 386.016 618 386.016ZM616 384.016 608 384.016 608 366.011 616 366.011Z" fill="#1C38BB" fill-rule="nonzero" fill-opacity="1"/></g></g></svg>