<svg width="97" height="98" xmlns="http://www.w3.org/2000/svg" xmlns:xlink="http://www.w3.org/1999/xlink" xml:space="preserve" overflow="hidden"><g transform="translate(-704 -202)"><g><g><g><g><path d="M782 282 782 222C782 216.154 767.059 213 753 213 738.941 213 724 216.154 724 222L724 282C724 287.846 738.941 291 753 291 767.059 291 782 287.846 782 282ZM753 215C768.453 215 780 218.7 780 222 780 225.3 768.453 229 753 229 737.547 229 726 225.3 726 222 726 218.7 737.547 215 753 215ZM726 225.46C730.529 229.08 742.033 231 753 231 763.967 231 775.471 229.08 780 225.46L780 242C780 245.3 768.453 249 753 249 737.547 249 726 245.3 726 242ZM726 245.46C730.529 249.08 742.033 251 753 251 763.967 251 775.471 249.08 780 245.46L780 262C780 265.3 768.453 269 753 269 737.547 269 726 265.3 726 262ZM726 282 726 265.46C730.529 269.08 742.033 271 753 271 763.967 271 775.471 269.08 780 265.46L780 282C780 285.3 768.453 289 753 289 737.547 289 726 285.3 726 282Z" fill="#1C38BB" fill-rule="nonzero" fill-opacity="1"/><path d="M775 239C775 240.105 774.105 241 773 241 771.895 241 771 240.105 771 239 771 237.895 771.895 237 773 237 774.105 237 775 237.895 775 239Z" fill="#1C38BB" fill-rule="nonzero" fill-opacity="1"/><path d="M775 259C775 260.105 774.105 261 773 261 771.895 261 771 260.105 771 259 771 257.895 771.895 257 773 257 774.105 257 775 257.895 775 259Z" fill="#1C38BB" fill-rule="nonzero" fill-opacity="1"/><path d="M775 279C775 280.105 774.105 281 773 281 771.895 281 771 280.105 771 279 771 277.895 771.895 277 773 277 774.105 277 775 277.895 775 279Z" fill="#1C38BB" fill-rule="nonzero" fill-opacity="1"/></g></g></g></g></g></svg>