<svg width="97" height="96" xmlns="http://www.w3.org/2000/svg" xmlns:xlink="http://www.w3.org/1999/xlink" xml:space="preserve" overflow="hidden"><g transform="translate(-816 -312)"><g><g><g><g><path d="M833 331 833 372 829 372C828.448 372 828 372.448 828 373 828 373.552 828.448 374 829 374L862.586 374 844.793 391.793C844.396 392.177 844.385 392.81 844.768 393.207 845.152 393.604 845.785 393.615 846.182 393.232 846.191 393.224 846.199 393.215 846.207 393.207L863.983 375.431C863.987 375.427 863.993 375.427 863.997 375.431 863.999 375.433 864 375.435 864 375.438L864 396C864 396.552 864.448 397 865 397 865.552 397 866 396.552 866 396L866 375.438C866 375.432 866.005 375.428 866.01 375.428 866.013 375.428 866.015 375.429 866.017 375.431L883.793 393.207C884.19 393.591 884.823 393.58 885.207 393.182 885.581 392.795 885.581 392.18 885.207 391.793L867.414 374 901 374C901.552 374 902 373.552 902 373 902 372.448 901.552 372 901 372L897 372 897 331 901 331C901.552 331 902 330.552 902 330 902 329.448 901.552 329 901 329L866 329 866 325C866 324.448 865.552 324 865 324 864.448 324 864 324.448 864 325L864 329 829 329C828.448 329 828 329.448 828 330 828 330.552 828.448 331 829 331ZM835 331 895 331 895 372 835 372Z" fill="#1C38BB" fill-rule="nonzero" fill-opacity="1"/><path d="M847 344 864 344 864 346 847 346Z" fill="#1C38BB" fill-rule="nonzero" fill-opacity="1"/><path d="M847 357 864 357 864 359 847 359Z" fill="#1C38BB" fill-rule="nonzero" fill-opacity="1"/><path d="M875 347.586 871.707 344.293 870.293 345.707 875 350.414 883.707 341.707 882.293 340.293 875 347.586Z" fill="#1C38BB" fill-rule="nonzero" fill-opacity="1"/><path d="M875 360.586 871.707 357.293 870.293 358.707 875 363.414 883.707 354.707 882.293 353.293 875 360.586Z" fill="#1C38BB" fill-rule="nonzero" fill-opacity="1"/></g></g></g></g></g></svg>