<?xml version="1.0" encoding="utf-8"?>
<!-- Generator: Adobe Illustrator 26.0.2, SVG Export Plug-In . SVG Version: 6.00 Build 0)  -->
<svg version="1.1" id="Layer_1" xmlns="http://www.w3.org/2000/svg" xmlns:xlink="http://www.w3.org/1999/xlink" x="0px" y="0px"
	 viewBox="0 0 351.6 331.1" style="enable-background:new 0 0 351.6 331.1;" xml:space="preserve">
<style type="text/css">
	.st0{fill:#FFFFFF;}
</style>
<g id="Layer_2_00000169539225473616459720000001771300885747566225_">
	<g id="Layer_1-2">
		<ellipse class="st0" cx="235.6" cy="234.6" rx="97.5" ry="66"/>
		<ellipse class="st0" cx="231.6" cy="233.1" rx="101.5" ry="67.5"/>
		<path class="st0" d="M198.7,216.7c-1.8-1.6-4.2-2.1-7.2-2.1h-19.4v17h19.4c2.6,0.1,5.2-0.8,7.2-2.5c1.8-1.5,2.8-3.7,2.7-6.1
			C201.5,220.6,200.5,218.3,198.7,216.7z"/>
		<path class="st0" d="M313.6,78.2C229.2-65.2,111.5,16.5,32.4,101.8C-70.8,217.4,95.4,320,213.7,330.5S398,221.5,313.6,78.2z
			 M201.4,270.6l-11-27h-18.2v27h-12v-69h31.2c4.1-0.1,8.2,1,11.8,3c7,4.1,10.5,10.2,10.5,18.2s-3.7,14.3-11,18.3l12.5,29.5H201.4z
			 M270.9,270.6l-11-27h-17.7v27h-13v-69h31.7c4.1-0.1,8.2,1,11.8,3c7,4.1,10.5,10.2,10.5,18.2s-3.7,14.3-11,18.3l12.5,29.5H270.9z
			 M312.1,270.6h-12v-69h12V270.6z"/>
		<path class="st0" d="M268.2,216.7c-1.8-1.6-4.2-2.1-7.2-2.1h-19v17h19c2.6,0.1,5.2-0.8,7.2-2.5c1.8-1.5,2.7-3.7,2.7-6.1
			C271,220.6,270,218.3,268.2,216.7z"/>
		<path d="M198.7,216.7c-1.8-1.6-4.2-2.1-7.2-2.1h-19.4v17h19.4c2.6,0.1,5.2-0.8,7.2-2.5c1.8-1.5,2.8-3.7,2.7-6.1
			C201.5,220.6,200.5,218.3,198.7,216.7z"/>
		<path d="M313.6,78.2C229.2-65.2,111.5,16.5,32.4,101.8C-70.8,217.4,95.4,320,213.7,330.5S398,221.5,313.6,78.2z M201.4,270.6
			l-11-27h-18.2v27h-12v-69h31.2c4.1-0.1,8.2,1,11.8,3c7,4.1,10.5,10.2,10.5,18.2s-3.7,14.3-11,18.3l12.5,29.5H201.4z M270.9,270.6
			l-11-27h-17.7v27h-13v-69h31.7c4.1-0.1,8.2,1,11.8,3c7,4.1,10.5,10.2,10.5,18.2s-3.7,14.3-11,18.3l12.5,29.5H270.9z M312.1,270.6
			h-12v-69h12V270.6z"/>
		<path d="M268.2,216.7c-1.8-1.6-4.2-2.1-7.2-2.1h-19v17h19c2.6,0.1,5.2-0.8,7.2-2.5c1.8-1.5,2.7-3.7,2.7-6.1
			C271,220.6,270,218.3,268.2,216.7z"/>
	</g>
</g>
</svg>
